{
  "accessors": [
    {
      "bufferView": 2,
      "componentType": 5126,
      "count": 55,
      "max": [
        1.7409671545028687,
        0.00666471105068922,
        2.3381237983703613
      ],
      "min": [
        -1.745653510093689,
        -0.03397110104560852,
        -0.009978055953979492
      ],
      "type": "VEC3"
    },
    {
      "bufferView": 2,
      "byteOffset": 660,
      "componentType": 5126,
      "count": 55,
      "max": [
        1.0,
        1.0,
        0.975713312625885
      ],
      "min": [
        -1.0,
        -1.0,
        -0.9914476275444031
      ],
      "type": "VEC3"
    },
    {
      "bufferView": 1,
      "componentType": 5126,
      "count": 55,
      "max": [
        1.0,
        1.0
      ],
      "min": [
        0.0,
        0.0
      ],
      "type": "VEC2"
    },
    {
      "bufferView": 0,
      "componentType": 5125,
      "count": 123,
      "type": "SCALAR"
    },
    {
      "bufferView": 2,
      "byteOffset": 1320,
      "componentType": 5126,
      "count": 193,
      "max": [
        1.7409671545028687,
        0.00666471105068922,
        2.348670244216919
      ],
      "min": [
        -1.745653510093689,
        -0.03410624340176582,
        -0.009978055953979492
      ],
      "type": "VEC3"
    },
    {
      "bufferView": 2,
      "byteOffset": 3636,
      "componentType": 5126,
      "count": 193,
      "max": [
        1.0,
        1.0,
        0.9757132530212402
      ],
      "min": [
        -1.0,
        -0.9999995231628418,
        -1.0
      ],
      "type": "VEC3"
    },
    {
      "bufferView": 1,
      "byteOffset": 440,
      "componentType": 5126,
      "count": 193,
      "max": [
        1.0,
        1.0
      ],
      "min": [
        0.0,
        0.0
      ],
      "type": "VEC2"
    },
    {
      "bufferView": 0,
      "byteOffset": 492,
      "componentType": 5125,
      "count": 444,
      "type": "SCALAR"
    },
    {
      "bufferView": 2,
      "byteOffset": 5952,
      "componentType": 5126,
      "count": 5,
      "max": [
        1.6846109628677368,
        -0.024380769580602646,
        2.269745111465454
      ],
      "min": [
        -1.6892973184585571,
        -0.033125199377536774,
        0.34808799624443054
      ],
      "type": "VEC3"
    },
    {
      "bufferView": 2,
      "byteOffset": 6012,
      "componentType": 5126,
      "count": 5,
      "max": [
        0.055191829800605774,
        -0.9870014190673828,
        0.006639143917709589
      ],
      "min": [
        -0.055191829800605774,
        -0.9999780058860779,
        -0.15482157468795776
      ],
      "type": "VEC3"
    },
    {
      "bufferView": 1,
      "byteOffset": 1984,
      "componentType": 5126,
      "count": 5,
      "max": [
        0.9951437711715698,
        0.9917820692062378
      ],
      "min": [
        0.006810341030359268,
        0.008217930793762207
      ],
      "type": "VEC2"
    },
    {
      "bufferView": 0,
      "byteOffset": 2268,
      "componentType": 5125,
      "count": 9,
      "type": "SCALAR"
    },
    {
      "bufferView": 2,
      "byteOffset": 6072,
      "componentType": 5126,
      "count": 89,
      "max": [
        0.05550792068243027,
        0.006664721295237541,
        1.936026692390442
      ],
      "min": [
        -0.06016013026237488,
        0.0038850277196615934,
        1.7712550163269043
      ],
      "type": "VEC3"
    },
    {
      "bufferView": 2,
      "byteOffset": 7140,
      "componentType": 5126,
      "count": 89,
      "max": [
        0.9477318525314331,
        3.0161812901496887e-05,
        -2.553928197812638e-07
      ],
      "min": [
        -0.9911086559295654,
        -1.0,
        -0.9913355708122253
      ],
      "type": "VEC3"
    },
    {
      "bufferView": 1,
      "byteOffset": 2024,
      "componentType": 5126,
      "count": 89,
      "max": [
        1.0,
        1.0
      ],
      "min": [
        0.0,
        0.0
      ],
      "type": "VEC2"
    },
    {
      "bufferView": 0,
      "byteOffset": 2304,
      "componentType": 5125,
      "count": 246,
      "type": "SCALAR"
    },
    {
      "bufferView": 2,
      "byteOffset": 8208,
      "componentType": 5126,
      "count": 25,
      "max": [
        1.7409671545028687,
        -0.024380769580602646,
        2.320115327835083
      ],
      "min": [
        -1.745653510093689,
        -0.03410624340176582,
        0.22885894775390625
      ],
      "type": "VEC3"
    },
    {
      "bufferView": 2,
      "byteOffset": 8508,
      "componentType": 5126,
      "count": 25,
      "max": [
        0.055191829800605774,
        -0.981865406036377,
        0.006639143917709589
      ],
      "min": [
        -0.055191829800605774,
        -1.0,
        -0.1895798146724701
      ],
      "type": "VEC3"
    },
    {
      "bufferView": 1,
      "byteOffset": 2736,
      "componentType": 5126,
      "count": 25,
      "max": [
        1.0,
        1.0
      ],
      "min": [
        0.5,
        0.0
      ],
      "type": "VEC2"
    },
    {
      "bufferView": 0,
      "byteOffset": 3288,
      "componentType": 5125,
      "count": 96,
      "type": "SCALAR"
    },
    {
      "bufferView": 2,
      "byteOffset": 8808,
      "componentType": 5126,
      "count": 134,
      "max": [
        0.44136911630630493,
        -0.03342372551560402,
        0.3254590332508087
      ],
      "min": [
        -0.38345128297805786,
        -0.03494128957390785,
        0.2769026756286621
      ],
      "type": "VEC3"
    },
    {
      "bufferView": 2,
      "byteOffset": 10416,
      "componentType": 5126,
      "count": 134,
      "max": [
        1.3195510746299988e-06,
        -0.9995119571685791,
        0.031239159405231476
      ],
      "min": [
        -5.972113399366208e-07,
        -0.9995120763778687,
        0.03123776614665985
      ],
      "type": "VEC3"
    },
    {
      "bufferView": 1,
      "byteOffset": 2936,
      "componentType": 5126,
      "count": 134,
      "max": [
        1.0,
        1.0
      ],
      "min": [
        0.0,
        0.0
      ],
      "type": "VEC2"
    },
    {
      "bufferView": 0,
      "byteOffset": 3672,
      "componentType": 5125,
      "count": 348,
      "type": "SCALAR"
    },
    {
      "bufferView": 2,
      "byteOffset": 12024,
      "componentType": 5126,
      "count": 241,
      "max": [
        2.0339295864105225,
        0.07359783351421356,
        0.8262170553207397
      ],
      "min": [
        -2.0372283458709717,
        -0.15525276958942413,
        -2.2127585411071777
      ],
      "type": "VEC3"
    },
    {
      "bufferView": 2,
      "byteOffset": 14916,
      "componentType": 5126,
      "count": 241,
      "max": [
        0.9911085367202759,
        0.3911269009113312,
        0.975713312625885
      ],
      "min": [
        -0.9911085963249207,
        -1.0,
        -0.9913355708122253
      ],
      "type": "VEC3"
    },
    {
      "bufferView": 1,
      "byteOffset": 4008,
      "componentType": 5126,
      "count": 241,
      "max": [
        1.0,
        1.0
      ],
      "min": [
        0.0,
        0.0
      ],
      "type": "VEC2"
    },
    {
      "bufferView": 0,
      "byteOffset": 5064,
      "componentType": 5125,
      "count": 495,
      "type": "SCALAR"
    },
    {
      "bufferView": 2,
      "byteOffset": 17808,
      "componentType": 5126,
      "count": 1068,
      "max": [
        2.1736958026885986,
        0.00029272865504026413,
        0.17938315868377686
      ],
      "min": [
        -2.1778171062469482,
        -0.2603522837162018,
        -2.4783518314361572
      ],
      "type": "VEC3"
    },
    {
      "bufferView": 2,
      "byteOffset": 30624,
      "componentType": 5126,
      "count": 1068,
      "max": [
        1.0,
        0.9999854564666748,
        0.9998084902763367
      ],
      "min": [
        -1.0,
        -0.9999803900718689,
        -0.9998084902763367
      ],
      "type": "VEC3"
    },
    {
      "bufferView": 1,
      "byteOffset": 5936,
      "componentType": 5126,
      "count": 1068,
      "max": [
        1.0000007152557373,
        1.0
      ],
      "min": [
        0.0,
        -9.270816917705815e-06
      ],
      "type": "VEC2"
    },
    {
      "bufferView": 0,
      "byteOffset": 7044,
      "componentType": 5125,
      "count": 3786,
      "type": "SCALAR"
    },
    {
      "bufferView": 2,
      "byteOffset": 43440,
      "componentType": 5126,
      "count": 4479,
      "max": [
        2.177023410797119,
        0.077324777841568,
        0.8262163400650024
      ],
      "min": [
        -2.181347131729126,
        -0.2614326477050781,
        -2.4914746284484863
      ],
      "type": "VEC3"
    },
    {
      "bufferView": 2,
      "byteOffset": 97188,
      "componentType": 5126,
      "count": 4479,
      "max": [
        1.0,
        0.9999998807907104,
        0.9998087286949158
      ],
      "min": [
        -1.0,
        -0.9999803900718689,
        -0.999952495098114
      ],
      "type": "VEC3"
    },
    {
      "bufferView": 1,
      "byteOffset": 14480,
      "componentType": 5126,
      "count": 4479,
      "max": [
        1.0000001192092896,
        1.0
      ],
      "min": [
        0.0,
        0.0
      ],
      "type": "VEC2"
    },
    {
      "bufferView": 0,
      "byteOffset": 22188,
      "componentType": 5125,
      "count": 9723,
      "type": "SCALAR"
    },
    {
      "bufferView": 2,
      "byteOffset": 150936,
      "componentType": 5126,
      "count": 2120,
      "max": [
        2.0570738315582275,
        -5.7104043662548065e-05,
        0.08211410045623779
      ],
      "min": [
        -2.0611960887908936,
        -0.16739489138126373,
        -2.4687719345092773
      ],
      "type": "VEC3"
    },
    {
      "bufferView": 2,
      "byteOffset": 176376,
      "componentType": 5126,
      "count": 2120,
      "max": [
        1.0,
        0.9998084902763367,
        0.9998085498809814
      ],
      "min": [
        -1.0,
        -0.9998084902763367,
        -0.9998085498809814
      ],
      "type": "VEC3"
    },
    {
      "bufferView": 1,
      "byteOffset": 50312,
      "componentType": 5126,
      "count": 2120,
      "max": [
        1.0,
        1.0
      ],
      "min": [
        0.0,
        0.0
      ],
      "type": "VEC2"
    },
    {
      "bufferView": 0,
      "byteOffset": 61080,
      "componentType": 5125,
      "count": 3432,
      "type": "SCALAR"
    },
    {
      "bufferView": 2,
      "byteOffset": 201816,
      "componentType": 5126,
      "count": 132,
      "max": [
        2.177023410797119,
        -0.00879308208823204,
        0.6966651678085327
      ],
      "min": [
        -2.181347131729126,
        -0.16912074387073517,
        -1.218730092048645
      ],
      "type": "VEC3"
    },
    {
      "bufferView": 2,
      "byteOffset": 203400,
      "componentType": 5126,
      "count": 132,
      "max": [
        1.0,
        0.9998084902763367,
        0.9998088479042053
      ],
      "min": [
        -1.0,
        -0.9998084902763367,
        -0.9998084306716919
      ],
      "type": "VEC3"
    },
    {
      "bufferView": 1,
      "byteOffset": 67272,
      "componentType": 5126,
      "count": 132,
      "max": [
        1.0,
        1.0
      ],
      "min": [
        0.0,
        0.0
      ],
      "type": "VEC2"
    },
    {
      "bufferView": 0,
      "byteOffset": 74808,
      "componentType": 5125,
      "count": 294,
      "type": "SCALAR"
    },
    {
      "bufferView": 2,
      "byteOffset": 204984,
      "componentType": 5126,
      "count": 3296,
      "max": [
        2.02905535697937,
        0.020639875903725624,
        0.5274116396903992
      ],
      "min": [
        -1.979815125465393,
        -0.02653193473815918,
        -0.7867441773414612
      ],
      "type": "VEC3"
    },
    {
      "bufferView": 2,
      "byteOffset": 244536,
      "componentType": 5126,
      "count": 3296,
      "max": [
        0.9807881712913513,
        0.01936275139451027,
        0.9887261390686035
      ],
      "min": [
        -0.9807871580123901,
        -0.019356438890099525,
        -0.9887262582778931
      ],
      "type": "VEC3"
    },
    {
      "bufferView": 1,
      "byteOffset": 68328,
      "componentType": 5126,
      "count": 3296,
      "max": [
        0.625,
        1.0
      ],
      "min": [
        0.375,
        0.0
      ],
      "type": "VEC2"
    },
    {
      "bufferView": 0,
      "byteOffset": 75984,
      "componentType": 5125,
      "count": 7410,
      "type": "SCALAR"
    },
    {
      "bufferView": 2,
      "byteOffset": 284088,
      "componentType": 5126,
      "count": 1240,
      "max": [
        2.02905535697937,
        0.020639875903725624,
        0.5274105668067932
      ],
      "min": [
        -1.979815125465393,
        -0.004264794290065765,
        -0.7867441773414612
      ],
      "type": "VEC3"
    },
    {
      "bufferView": 2,
      "byteOffset": 298968,
      "componentType": 5126,
      "count": 1240,
      "max": [
        0.14847993850708008,
        0.9998084902763367,
        0.9887259602546692
      ],
      "min": [
        -0.16876327991485596,
        0.019296718761324883,
        -0.019574027508497238
      ],
      "type": "VEC3"
    },
    {
      "bufferView": 1,
      "byteOffset": 94696,
      "componentType": 5126,
      "count": 1240,
      "max": [
        0.9868375658988953,
        0.8721491098403931
      ],
      "min": [
        0.01778233051300049,
        0.11869969218969345
      ],
      "type": "VEC2"
    },
    {
      "bufferView": 0,
      "byteOffset": 105624,
      "componentType": 5125,
      "count": 3096,
      "type": "SCALAR"
    }
  ],
  "asset": {
    "extras": {
      "author": "santispinner (https://sketchfab.com/santispinner)",
      "license": "CC-BY-4.0 (http://creativecommons.org/licenses/by/4.0/)",
      "source": "https://sketchfab.com/3d-models/alienware-area-51-de8737dbd7c44769a21f1a964d5ca911",
      "title": "alienware area 51"
    },
    "generator": "Sketchfab-15.55.0",
    "version": "2.0"
  },
  "bufferViews": [
    {
      "buffer": 0,
      "byteLength": 118008,
      "name": "floatBufferViews",
      "target": 34963
    },
    {
      "buffer": 0,
      "byteLength": 104616,
      "byteOffset": 118008,
      "byteStride": 8,
      "name": "floatBufferViews",
      "target": 34962
    },
    {
      "buffer": 0,
      "byteLength": 313848,
      "byteOffset": 222624,
      "byteStride": 12,
      "name": "floatBufferViews",
      "target": 34962
    }
  ],
  "buffers": [
    {
      "byteLength": 536472,
      "uri": "scene.bin"
    }
  ],
  "images": [
    {
      "uri": "textures/pantalla_baseColor.jpeg"
    },
    {
      "uri": "textures/pantalla_metallicRoughness.png"
    },
    {
      "uri": "textures/Material_baseColor.png"
    }
  ],
  "materials": [
    {
      "doubleSided": true,
      "name": "plaastico_blanco",
      "pbrMetallicRoughness": {
        "baseColorFactor": [
          0.8,
          0.8,
          0.8,
          1.0
        ],
        "metallicFactor": 0.0,
        "roughnessFactor": 0.5
      }
    },
    {
      "doubleSided": true,
      "name": "plastico_negro",
      "pbrMetallicRoughness": {
        "baseColorFactor": [
          0.0,
          0.0,
          0.0,
          1.0
        ],
        "metallicFactor": 0.0,
        "roughnessFactor": 0.4
      }
    },
    {
      "doubleSided": true,
      "emissiveFactor": [
        1.0,
        1.0,
        1.0
      ],
      "name": "pantalla",
      "pbrMetallicRoughness": {
        "baseColorTexture": {
          "index": 0
        },
        "metallicRoughnessTexture": {
          "index": 1
        }
      }
    },
    {
      "doubleSided": true,
      "emissiveFactor": [
        0.141964,
        0.943027,
        1.0
      ],
      "name": "luces"
    },
    {
      "doubleSided": true,
      "name": "Material.001",
      "pbrMetallicRoughness": {
        "baseColorFactor": [
          0.0,
          0.0,
          0.0,
          1.0
        ],
        "metallicFactor": 0.0,
        "roughnessFactor": 0.0
      }
    },
    {
      "doubleSided": true,
      "name": "gris",
      "pbrMetallicRoughness": {
        "baseColorFactor": [
          0.447978,
          0.447978,
          0.447978,
          1.0
        ],
        "metallicFactor": 0.0,
        "roughnessFactor": 0.5
      }
    },
    {
      "doubleSided": true,
      "name": "metal",
      "pbrMetallicRoughness": {
        "roughnessFactor": 0.0
      }
    },
    {
      "doubleSided": true,
      "emissiveFactor": [
        0.018778199999999995,
        0.9412389999999997,
        1.0
      ],
      "name": "Material",
      "pbrMetallicRoughness": {
        "baseColorTexture": {
          "index": 2
        },
        "metallicFactor": 0.0,
        "roughnessFactor": 0.5
      }
    }
  ],
  "meshes": [
    {
      "name": "Object_0",
      "primitives": [
        {
          "attributes": {
            "NORMAL": 1,
            "POSITION": 0,
            "TEXCOORD_0": 2
          },
          "indices": 3,
          "material": 0,
          "mode": 4
        }
      ]
    },
    {
      "name": "Object_1",
      "primitives": [
        {
          "attributes": {
            "NORMAL": 5,
            "POSITION": 4,
            "TEXCOORD_0": 6
          },
          "indices": 7,
          "material": 1,
          "mode": 4
        }
      ]
    },
    {
      "name": "Object_2",
      "primitives": [
        {
          "attributes": {
            "NORMAL": 9,
            "POSITION": 8,
            "TEXCOORD_0": 10
          },
          "indices": 11,
          "material": 2,
          "mode": 4
        }
      ]
    },
    {
      "name": "Object_3",
      "primitives": [
        {
          "attributes": {
            "NORMAL": 13,
            "POSITION": 12,
            "TEXCOORD_0": 14
          },
          "indices": 15,
          "material": 3,
          "mode": 4
        }
      ]
    },
    {
      "name": "Object_4",
      "primitives": [
        {
          "attributes": {
            "NORMAL": 17,
            "POSITION": 16,
            "TEXCOORD_0": 18
          },
          "indices": 19,
          "material": 4,
          "mode": 4
        }
      ]
    },
    {
      "name": "Object_5",
      "primitives": [
        {
          "attributes": {
            "NORMAL": 21,
            "POSITION": 20,
            "TEXCOORD_0": 22
          },
          "indices": 23,
          "material": 5,
          "mode": 4
        }
      ]
    },
    {
      "name": "Object_6",
      "primitives": [
        {
          "attributes": {
            "NORMAL": 25,
            "POSITION": 24,
            "TEXCOORD_0": 26
          },
          "indices": 27,
          "material": 3,
          "mode": 4
        }
      ]
    },
    {
      "name": "Object_7",
      "primitives": [
        {
          "attributes": {
            "NORMAL": 29,
            "POSITION": 28,
            "TEXCOORD_0": 30
          },
          "indices": 31,
          "material": 0,
          "mode": 4
        }
      ]
    },
    {
      "name": "Object_8",
      "primitives": [
        {
          "attributes": {
            "NORMAL": 33,
            "POSITION": 32,
            "TEXCOORD_0": 34
          },
          "indices": 35,
          "material": 1,
          "mode": 4
        }
      ]
    },
    {
      "name": "Object_9",
      "primitives": [
        {
          "attributes": {
            "NORMAL": 37,
            "POSITION": 36,
            "TEXCOORD_0": 38
          },
          "indices": 39,
          "material": 5,
          "mode": 4
        }
      ]
    },
    {
      "name": "Object_10",
      "primitives": [
        {
          "attributes": {
            "NORMAL": 41,
            "POSITION": 40,
            "TEXCOORD_0": 42
          },
          "indices": 43,
          "material": 6,
          "mode": 4
        }
      ]
    },
    {
      "name": "Object_11",
      "primitives": [
        {
          "attributes": {
            "NORMAL": 45,
            "POSITION": 44,
            "TEXCOORD_0": 46
          },
          "indices": 47,
          "material": 1,
          "mode": 4
        }
      ]
    },
    {
      "name": "Object_12",
      "primitives": [
        {
          "attributes": {
            "NORMAL": 49,
            "POSITION": 48,
            "TEXCOORD_0": 50
          },
          "indices": 51,
          "material": 7,
          "mode": 4
        }
      ]
    }
  ],
  "nodes": [
    {
      "children": [
        1
      ],
      "matrix": [
        1.0,
        0.0,
        0.0,
        0.0,
        0.0,
        2.220446049250313e-16,
        -1.0,
        0.0,
        0.0,
        1.0,
        2.220446049250313e-16,
        0.0,
        0.0,
        0.0,
        0.0,
        1.0
      ],
      "name": "Sketchfab_model"
    },
    {
      "children": [
        2
      ],
      "name": "root"
    },
    {
      "children": [
        3,
        10,
        16
      ],
      "matrix": [
        1.0,
        0.0,
        0.0,
        0.0,
        0.0,
        2.220446049250313e-16,
        1.0,
        0.0,
        0.0,
        -1.0,
        2.220446049250313e-16,
        0.0,
        0.0,
        0.0,
        0.0,
        1.0
      ],
      "name": "GLTF_SceneRootNode"
    },
    {
      "children": [
        4,
        5,
        6,
        7,
        8,
        9
      ],
      "matrix": [
        1.0,
        0.0,
        -0.0,
        0.0,
        -0.0,
        -0.11892518197807012,
        -0.9929032183911395,
        0.0,
        0.0,
        0.9929032183911395,
        -0.11892518197807012,
        0.0,
        -0.03159792721271515,
        0.25592276453971863,
        -0.9674702882766724,
        1.0
      ],
      "name": "monitor_0"
    },
    {
      "mesh": 0,
      "name": "Object_4"
    },
    {
      "mesh": 1,
      "name": "Object_5"
    },
    {
      "mesh": 2,
      "name": "Object_6"
    },
    {
      "mesh": 3,
      "name": "Object_7"
    },
    {
      "mesh": 4,
      "name": "Object_8"
    },
    {
      "mesh": 5,
      "name": "Object_9"
    },
    {
      "children": [
        11,
        12,
        13,
        14,
        15
      ],
      "matrix": [
        -0.8035362362861204,
        2.5624816353230463e-09,
        2.618002446256531e-07,
        0.0,
        -2.562481825402598e-09,
        0.8033823474422523,
        -0.015728402083378338,
        0.0,
        -2.6180026404545013e-07,
        -0.015728402083378338,
        -0.8033823474422093,
        0.0,
        -0.03392403572797775,
        0.21805918216705322,
        -0.6524795889854431,
        1.0
      ],
      "name": "laptop_1"
    },
    {
      "mesh": 6,
      "name": "Object_11"
    },
    {
      "mesh": 7,
      "name": "Object_12"
    },
    {
      "mesh": 8,
      "name": "Object_13"
    },
    {
      "mesh": 9,
      "name": "Object_14"
    },
    {
      "mesh": 10,
      "name": "Object_15"
    },
    {
      "children": [
        17,
        18
      ],
      "matrix": [
        -0.8035362362861204,
        2.5624816353230463e-09,
        2.618002446256531e-07,
        0.0,
        -2.562481825402598e-09,
        0.8033823474422523,
        -0.015728402083378338,
        0.0,
        -2.6180026404545013e-07,
        -0.015728402083378338,
        -0.8033823474422093,
        0.0,
        -0.014179328456521034,
        0.21670441329479218,
        -0.08766287565231323,
        1.0
      ],
      "name": "laptop.001_2"
    },
    {
      "mesh": 11,
      "name": "Object_17"
    },
    {
      "mesh": 12,
      "name": "Object_18"
    }
  ],
  "samplers": [
    {
      "magFilter": 9729,
      "minFilter": 9987,
      "wrapS": 10497,
      "wrapT": 10497
    }
  ],
  "scene": 0,
  "scenes": [
    {
      "name": "Sketchfab_Scene",
      "nodes": [
        0
      ]
    }
  ],
  "textures": [
    {
      "sampler": 0,
      "source": 0
    },
    {
      "sampler": 0,
      "source": 1
    },
    {
      "sampler": 0,
      "source": 2
    }
  ]
}
