<svg 
    xmlns="http://www.w3.org/2000/svg" 
    width="40" 
    height="48"
    viewBox="0 0 40 48"
>
    <path style="stroke:none;fill-rule:nonzero;fill:transparent;fill-opacity:1" d="M15.656 48.133H.133v-48h40v48H15.656m1.668-42.067h-.808c-1.313 4.633-2.61 9.196-3.899 13.758-1.363 4.84-2.722 9.68-4.078 14.52-.434 1.547-.777 1.82-2.398 1.84-.63.007-1.254 0-1.88 0v6.148c1.962 0 3.9.152 5.801-.039 2.25-.227 3.895-1.52 4.504-3.754 1.727-6.332 3.375-12.687 5.059-19.031.352-1.332.707-2.656 1.105-4.145.114.246.16.317.184.395.969 3.289 1.926 6.582 2.91 9.87.809 2.7 1.656 5.388 2.469 8.087.504 1.687-.055 2.445-1.777 2.46-1.028.009-2.059.005-3.09.005H20.03v6.254c2.164 0 4.293.109 6.407-.028 3.164-.203 5.46-1.758 6.542-4.832.723-2.054.399-4.094-.226-6.125-1.598-5.21-3.168-10.43-4.75-15.644-.988-3.239-1.98-6.477-2.977-9.739h-7.703Zm0 0"/>
    <path style="stroke:none;fill-rule:nonzero;fill:#fcfcfc;fill-opacity:1" d="M17.387 6.066h7.64c.996 3.262 1.989 6.5 2.977 9.739 1.582 5.215 3.152 10.433 4.75 15.644.625 2.031.95 4.07.226 6.125-1.082 3.074-3.378 4.63-6.542 4.832-2.114.137-4.243.028-6.407.028V36.18h1.395c1.031 0 2.062.004 3.09-.004 1.722-.016 2.28-.774 1.777-2.461-.813-2.7-1.66-5.387-2.469-8.086-.984-3.29-1.941-6.582-2.91-9.871-.023-.078-.07-.149-.184-.395-.398 1.489-.753 2.813-1.105 4.145-1.684 6.344-3.332 12.699-5.059 19.031-.609 2.234-2.254 3.527-4.504 3.754-1.902.191-3.84.039-5.8.039v-6.148c.625 0 1.25.007 1.879 0 1.62-.02 1.964-.293 2.398-1.84 1.356-4.84 2.715-9.68 4.078-14.52 1.29-4.562 2.586-9.125 3.899-13.758h.87Zm0 0"/>
</svg>
